<svg width="386" height="153" viewBox="0 0 386 153" fill="none" xmlns="http://www.w3.org/2000/svg">
<rect width="386" height="152" rx="22" fill="#CA6C36"/>
<path d="M42.902 26.6H49.304V28.8H45.322V33.09H48.446V35.29H45.322V42H42.902V26.6ZM51.6255 26.6H54.9035L57.4115 42H54.9915L54.5515 38.942V38.986H51.8015L51.3615 42H49.1175L51.6255 26.6ZM54.2655 36.896L53.1875 29.284H53.1435L52.0875 36.896H54.2655ZM59.4678 28.8H56.9378V26.6H64.4178V28.8H61.8878V42H59.4678V28.8ZM65.5895 26.6H68.0095V32.87H70.6055V26.6H73.0255V42H70.6055V35.07H68.0095V42H65.5895V26.6ZM74.8278 26.6H81.4278V28.8H77.2478V32.87H80.5698V35.07H77.2478V39.8H81.4278V42H74.8278V26.6ZM82.82 26.6H86.406C87.6526 26.6 88.562 26.8933 89.134 27.48C89.706 28.052 89.992 28.9393 89.992 30.142V31.088C89.992 32.6867 89.464 33.6987 88.408 34.124V34.168C88.9946 34.344 89.4053 34.7033 89.64 35.246C89.8893 35.7887 90.014 36.5147 90.014 37.424V40.13C90.014 40.57 90.0286 40.9293 90.058 41.208C90.0873 41.472 90.1606 41.736 90.278 42H87.814C87.726 41.7507 87.6673 41.516 87.638 41.296C87.6086 41.076 87.594 40.68 87.594 40.108V37.292C87.594 36.588 87.4766 36.0967 87.242 35.818C87.022 35.5393 86.6333 35.4 86.076 35.4H85.24V42H82.82V26.6ZM86.12 33.2C86.604 33.2 86.9633 33.0753 87.198 32.826C87.4473 32.5767 87.572 32.1587 87.572 31.572V30.384C87.572 29.8267 87.4693 29.4233 87.264 29.174C87.0733 28.9247 86.7653 28.8 86.34 28.8H85.24V33.2H86.12ZM92.485 28.932H91.693V26.6H94.025V28.69L92.683 31.572H91.561L92.485 28.932ZM98.9855 42.22C97.8122 42.22 96.9248 41.89 96.3235 41.23C95.7222 40.5553 95.4215 39.5947 95.4215 38.348V37.468H97.7095V38.524C97.7095 39.5213 98.1275 40.02 98.9635 40.02C99.3742 40.02 99.6822 39.9027 99.8875 39.668C100.108 39.4187 100.218 39.0227 100.218 38.48C100.218 37.8347 100.071 37.27 99.7775 36.786C99.4842 36.2873 98.9415 35.6933 98.1495 35.004C97.1522 34.124 96.4555 33.332 96.0595 32.628C95.6635 31.9093 95.4655 31.1027 95.4655 30.208C95.4655 28.9907 95.7735 28.052 96.3895 27.392C97.0055 26.7173 97.9002 26.38 99.0735 26.38C100.232 26.38 101.105 26.7173 101.692 27.392C102.293 28.052 102.594 29.0053 102.594 30.252V30.89H100.306V30.098C100.306 29.57 100.203 29.1887 99.9975 28.954C99.7922 28.7047 99.4915 28.58 99.0955 28.58C98.2888 28.58 97.8855 29.0713 97.8855 30.054C97.8855 30.6113 98.0322 31.132 98.3255 31.616C98.6335 32.1 99.1835 32.6867 99.9755 33.376C100.988 34.256 101.684 35.0553 102.066 35.774C102.447 36.4927 102.638 37.336 102.638 38.304C102.638 39.5653 102.322 40.5333 101.692 41.208C101.076 41.8827 100.174 42.22 98.9855 42.22ZM107.548 26.6H111.244C112.447 26.6 113.349 26.9227 113.95 27.568C114.552 28.2133 114.852 29.1593 114.852 30.406V38.194C114.852 39.4407 114.552 40.3867 113.95 41.032C113.349 41.6773 112.447 42 111.244 42H107.548V26.6ZM111.2 39.8C111.596 39.8 111.897 39.6827 112.102 39.448C112.322 39.2133 112.432 38.832 112.432 38.304V30.296C112.432 29.768 112.322 29.3867 112.102 29.152C111.897 28.9173 111.596 28.8 111.2 28.8H109.968V39.8H111.2ZM118.313 26.6H121.591L124.099 42H121.679L121.239 38.942V38.986H118.489L118.049 42H115.805L118.313 26.6ZM120.953 36.896L119.875 29.284H119.831L118.775 36.896H120.953ZM126.485 35.444L123.559 26.6H126.133L127.783 32.254H127.827L129.477 26.6H131.831L128.905 35.444V42H126.485V35.444ZM139.591 42.22C138.418 42.22 137.53 41.89 136.929 41.23C136.328 40.5553 136.027 39.5947 136.027 38.348V37.468H138.315V38.524C138.315 39.5213 138.733 40.02 139.569 40.02C139.98 40.02 140.288 39.9027 140.493 39.668C140.713 39.4187 140.823 39.0227 140.823 38.48C140.823 37.8347 140.676 37.27 140.383 36.786C140.09 36.2873 139.547 35.6933 138.755 35.004C137.758 34.124 137.061 33.332 136.665 32.628C136.269 31.9093 136.071 31.1027 136.071 30.208C136.071 28.9907 136.379 28.052 136.995 27.392C137.611 26.7173 138.506 26.38 139.679 26.38C140.838 26.38 141.71 26.7173 142.297 27.392C142.898 28.052 143.199 29.0053 143.199 30.252V30.89H140.911V30.098C140.911 29.57 140.808 29.1887 140.603 28.954C140.398 28.7047 140.097 28.58 139.701 28.58C138.894 28.58 138.491 29.0713 138.491 30.054C138.491 30.6113 138.638 31.132 138.931 31.616C139.239 32.1 139.789 32.6867 140.581 33.376C141.593 34.256 142.29 35.0553 142.671 35.774C143.052 36.4927 143.243 37.336 143.243 38.304C143.243 39.5653 142.928 40.5333 142.297 41.208C141.681 41.8827 140.779 42.22 139.591 42.22ZM144.631 26.6H148.195C149.397 26.6 150.299 26.9227 150.901 27.568C151.502 28.2133 151.803 29.1593 151.803 30.406V31.924C151.803 33.1707 151.502 34.1167 150.901 34.762C150.299 35.4073 149.397 35.73 148.195 35.73H147.051V42H144.631V26.6ZM148.195 33.53C148.591 33.53 148.884 33.42 149.075 33.2C149.28 32.98 149.383 32.606 149.383 32.078V30.252C149.383 29.724 149.28 29.35 149.075 29.13C148.884 28.91 148.591 28.8 148.195 28.8H147.051V33.53H148.195ZM153.117 26.6H159.717V28.8H155.537V32.87H158.859V35.07H155.537V39.8H159.717V42H153.117V26.6ZM164.079 42.22C162.92 42.22 162.033 41.89 161.417 41.23C160.816 40.57 160.515 39.6387 160.515 38.436V30.164C160.515 28.9613 160.816 28.03 161.417 27.37C162.033 26.71 162.92 26.38 164.079 26.38C165.238 26.38 166.118 26.71 166.719 27.37C167.335 28.03 167.643 28.9613 167.643 30.164V31.792H165.355V30.01C165.355 29.0567 164.952 28.58 164.145 28.58C163.338 28.58 162.935 29.0567 162.935 30.01V38.612C162.935 39.5507 163.338 40.02 164.145 40.02C164.952 40.02 165.355 39.5507 165.355 38.612V36.258H167.643V38.436C167.643 39.6387 167.335 40.57 166.719 41.23C166.118 41.89 165.238 42.22 164.079 42.22ZM168.651 26.6H171.071V42H168.651V26.6ZM174.313 26.6H177.591L180.099 42H177.679L177.239 38.942V38.986H174.489L174.049 42H171.805L174.313 26.6ZM176.953 36.896L175.875 29.284H175.831L174.775 36.896H176.953ZM180.833 26.6H183.253V39.8H187.235V42H180.833V26.6ZM194.537 42.22C193.349 42.22 192.44 41.8827 191.809 41.208C191.179 40.5333 190.863 39.58 190.863 38.348V30.252C190.863 29.02 191.179 28.0667 191.809 27.392C192.44 26.7173 193.349 26.38 194.537 26.38C195.725 26.38 196.635 26.7173 197.265 27.392C197.896 28.0667 198.211 29.02 198.211 30.252V38.348C198.211 39.58 197.896 40.5333 197.265 41.208C196.635 41.8827 195.725 42.22 194.537 42.22ZM194.537 40.02C195.373 40.02 195.791 39.514 195.791 38.502V30.098C195.791 29.086 195.373 28.58 194.537 28.58C193.701 28.58 193.283 29.086 193.283 30.098V38.502C193.283 39.514 193.701 40.02 194.537 40.02ZM199.408 26.6H205.81V28.8H201.828V33.09H204.952V35.29H201.828V42H199.408V26.6ZM206.53 26.6H212.932V28.8H208.95V33.09H212.074V35.29H208.95V42H206.53V26.6ZM213.653 26.6H220.253V28.8H216.073V32.87H219.395V35.07H216.073V39.8H220.253V42H213.653V26.6ZM221.205 26.6H224.791C226.038 26.6 226.947 26.8933 227.519 27.48C228.091 28.052 228.377 28.9393 228.377 30.142V31.088C228.377 32.6867 227.849 33.6987 226.793 34.124V34.168C227.38 34.344 227.79 34.7033 228.025 35.246C228.274 35.7887 228.399 36.5147 228.399 37.424V40.13C228.399 40.57 228.414 40.9293 228.443 41.208C228.472 41.472 228.546 41.736 228.663 42H226.199C226.111 41.7507 226.052 41.516 226.023 41.296C225.994 41.076 225.979 40.68 225.979 40.108V37.292C225.979 36.588 225.862 36.0967 225.627 35.818C225.407 35.5393 225.018 35.4 224.461 35.4H223.625V42H221.205V26.6ZM224.505 33.2C224.989 33.2 225.348 33.0753 225.583 32.826C225.832 32.5767 225.957 32.1587 225.957 31.572V30.384C225.957 29.8267 225.854 29.4233 225.649 29.174C225.458 28.9247 225.15 28.8 224.725 28.8H223.625V33.2H224.505Z" fill="white"/>
<path d="M42.902 114.6H49.304V116.8H45.322V121.09H48.446V123.29H45.322V130H42.902V114.6ZM53.9625 130.22C52.7745 130.22 51.8652 129.883 51.2345 129.208C50.6038 128.533 50.2885 127.58 50.2885 126.348V118.252C50.2885 117.02 50.6038 116.067 51.2345 115.392C51.8652 114.717 52.7745 114.38 53.9625 114.38C55.1505 114.38 56.0598 114.717 56.6905 115.392C57.3212 116.067 57.6365 117.02 57.6365 118.252V126.348C57.6365 127.58 57.3212 128.533 56.6905 129.208C56.0598 129.883 55.1505 130.22 53.9625 130.22ZM53.9625 128.02C54.7985 128.02 55.2165 127.514 55.2165 126.502V118.098C55.2165 117.086 54.7985 116.58 53.9625 116.58C53.1265 116.58 52.7085 117.086 52.7085 118.098V126.502C52.7085 127.514 53.1265 128.02 53.9625 128.02ZM59.2731 114.6H62.8591C64.1058 114.6 65.0151 114.893 65.5871 115.48C66.1591 116.052 66.4451 116.939 66.4451 118.142V119.088C66.4451 120.687 65.9171 121.699 64.8611 122.124V122.168C65.4478 122.344 65.8584 122.703 66.0931 123.246C66.3424 123.789 66.4671 124.515 66.4671 125.424V128.13C66.4671 128.57 66.4818 128.929 66.5111 129.208C66.5404 129.472 66.6138 129.736 66.7311 130H64.2671C64.1791 129.751 64.1204 129.516 64.0911 129.296C64.0618 129.076 64.0471 128.68 64.0471 128.108V125.292C64.0471 124.588 63.9298 124.097 63.6951 123.818C63.4751 123.539 63.0864 123.4 62.5291 123.4H61.6931V130H59.2731V114.6ZM62.5731 121.2C63.0571 121.2 63.4164 121.075 63.6511 120.826C63.9004 120.577 64.0251 120.159 64.0251 119.572V118.384C64.0251 117.827 63.9224 117.423 63.7171 117.174C63.5264 116.925 63.2184 116.8 62.7931 116.8H61.6931V121.2H62.5731ZM72.9016 116.8H70.3716V114.6H77.8516V116.8H75.3216V130H72.9016V116.8ZM78.3633 114.6H80.7833V120.87H83.3793V114.6H85.7993V130H83.3793V123.07H80.7833V130H78.3633V114.6ZM90.4395 130.22C89.2515 130.22 88.3422 129.883 87.7115 129.208C87.0809 128.533 86.7655 127.58 86.7655 126.348V118.252C86.7655 117.02 87.0809 116.067 87.7115 115.392C88.3422 114.717 89.2515 114.38 90.4395 114.38C91.6275 114.38 92.5369 114.717 93.1675 115.392C93.7982 116.067 94.1135 117.02 94.1135 118.252V126.348C94.1135 127.58 93.7982 128.533 93.1675 129.208C92.5369 129.883 91.6275 130.22 90.4395 130.22ZM90.4395 128.02C91.2755 128.02 91.6935 127.514 91.6935 126.502V118.098C91.6935 117.086 91.2755 116.58 90.4395 116.58C89.6035 116.58 89.1855 117.086 89.1855 118.098V126.502C89.1855 127.514 89.6035 128.02 90.4395 128.02ZM98.2361 130.22C97.0628 130.22 96.1755 129.89 95.5741 129.23C94.9728 128.555 94.6721 127.595 94.6721 126.348V125.468H96.9601V126.524C96.9601 127.521 97.3781 128.02 98.2141 128.02C98.6248 128.02 98.9328 127.903 99.1381 127.668C99.3581 127.419 99.4681 127.023 99.4681 126.48C99.4681 125.835 99.3215 125.27 99.0281 124.786C98.7348 124.287 98.1921 123.693 97.4001 123.004C96.4028 122.124 95.7061 121.332 95.3101 120.628C94.9141 119.909 94.7161 119.103 94.7161 118.208C94.7161 116.991 95.0241 116.052 95.6401 115.392C96.2561 114.717 97.1508 114.38 98.3241 114.38C99.4828 114.38 100.355 114.717 100.942 115.392C101.543 116.052 101.844 117.005 101.844 118.252V118.89H99.5561V118.098C99.5561 117.57 99.4535 117.189 99.2481 116.954C99.0428 116.705 98.7421 116.58 98.3461 116.58C97.5395 116.58 97.1361 117.071 97.1361 118.054C97.1361 118.611 97.2828 119.132 97.5761 119.616C97.8841 120.1 98.4341 120.687 99.2261 121.376C100.238 122.256 100.935 123.055 101.316 123.774C101.697 124.493 101.888 125.336 101.888 126.304C101.888 127.565 101.573 128.533 100.942 129.208C100.326 129.883 99.4241 130.22 98.2361 130.22ZM102.616 114.6H109.216V116.8H105.036V120.87H108.358V123.07H105.036V127.8H109.216V130H102.616V114.6ZM116.309 130.22C115.121 130.22 114.212 129.883 113.581 129.208C112.951 128.533 112.635 127.58 112.635 126.348V118.252C112.635 117.02 112.951 116.067 113.581 115.392C114.212 114.717 115.121 114.38 116.309 114.38C117.497 114.38 118.407 114.717 119.037 115.392C119.668 116.067 119.983 117.02 119.983 118.252V126.348C119.983 127.58 119.668 128.533 119.037 129.208C118.407 129.883 117.497 130.22 116.309 130.22ZM116.309 128.02C117.145 128.02 117.563 127.514 117.563 126.502V118.098C117.563 117.086 117.145 116.58 116.309 116.58C115.473 116.58 115.055 117.086 115.055 118.098V126.502C115.055 127.514 115.473 128.02 116.309 128.02ZM120.279 114.6H122.721L124.305 126.546H124.349L125.933 114.6H128.155L125.823 130H122.611L120.279 114.6ZM128.657 114.6H135.257V116.8H131.077V120.87H134.399V123.07H131.077V127.8H135.257V130H128.657V114.6ZM135.99 114.6H139.576C140.822 114.6 141.732 114.893 142.304 115.48C142.876 116.052 143.162 116.939 143.162 118.142V119.088C143.162 120.687 142.634 121.699 141.578 122.124V122.168C142.164 122.344 142.575 122.703 142.81 123.246C143.059 123.789 143.184 124.515 143.184 125.424V128.13C143.184 128.57 143.198 128.929 143.228 129.208C143.257 129.472 143.33 129.736 143.448 130H140.984C140.896 129.751 140.837 129.516 140.808 129.296C140.778 129.076 140.764 128.68 140.764 128.108V125.292C140.764 124.588 140.646 124.097 140.412 123.818C140.192 123.539 139.803 123.4 139.246 123.4H138.41V130H135.99V114.6ZM139.29 121.2C139.774 121.2 140.133 121.075 140.368 120.826C140.617 120.577 140.742 120.159 140.742 119.572V118.384C140.742 117.827 140.639 117.423 140.434 117.174C140.243 116.925 139.935 116.8 139.51 116.8H138.41V121.2H139.29ZM151.114 127.206H146.494V125.006L150.894 114.6H153.534V125.006H154.678V127.206H153.534V130H151.114V127.206ZM151.114 125.006V119H151.07L148.694 125.006H151.114ZM158.757 130.22C157.583 130.22 156.689 129.89 156.073 129.23C155.457 128.555 155.149 127.595 155.149 126.348V125.138H157.437V126.524C157.437 127.521 157.855 128.02 158.691 128.02C159.527 128.02 159.945 127.521 159.945 126.524V123.07C159.945 122.058 159.527 121.552 158.691 121.552C157.855 121.552 157.437 122.058 157.437 123.07V123.202H155.149L155.589 114.6H161.969V116.8H157.745L157.547 120.474H157.591C158.045 119.726 158.742 119.352 159.681 119.352C160.561 119.352 161.228 119.653 161.683 120.254C162.137 120.855 162.365 121.728 162.365 122.872V126.348C162.365 127.595 162.057 128.555 161.441 129.23C160.825 129.89 159.93 130.22 158.757 130.22ZM168.449 123.444L165.523 114.6H168.097L169.747 120.254H169.791L171.441 114.6H173.795L170.869 123.444V130H168.449V123.444ZM174.225 114.6H180.825V116.8H176.645V120.87H179.967V123.07H176.645V127.8H180.825V130H174.225V114.6ZM183.427 114.6H186.705L189.213 130H186.793L186.353 126.942V126.986H183.603L183.163 130H180.919L183.427 114.6ZM186.067 124.896L184.989 117.284H184.945L183.889 124.896H186.067ZM189.727 114.6H193.313C194.56 114.6 195.469 114.893 196.041 115.48C196.613 116.052 196.899 116.939 196.899 118.142V119.088C196.899 120.687 196.371 121.699 195.315 122.124V122.168C195.902 122.344 196.312 122.703 196.547 123.246C196.796 123.789 196.921 124.515 196.921 125.424V128.13C196.921 128.57 196.936 128.929 196.965 129.208C196.994 129.472 197.068 129.736 197.185 130H194.721C194.633 129.751 194.574 129.516 194.545 129.296C194.516 129.076 194.501 128.68 194.501 128.108V125.292C194.501 124.588 194.384 124.097 194.149 123.818C193.929 123.539 193.54 123.4 192.983 123.4H192.147V130H189.727V114.6ZM193.027 121.2C193.511 121.2 193.87 121.075 194.105 120.826C194.354 120.577 194.479 120.159 194.479 119.572V118.384C194.479 117.827 194.376 117.423 194.171 117.174C193.98 116.925 193.672 116.8 193.247 116.8H192.147V121.2H193.027ZM201.086 130.22C199.913 130.22 199.025 129.89 198.424 129.23C197.823 128.555 197.522 127.595 197.522 126.348V125.468H199.81V126.524C199.81 127.521 200.228 128.02 201.064 128.02C201.475 128.02 201.783 127.903 201.988 127.668C202.208 127.419 202.318 127.023 202.318 126.48C202.318 125.835 202.171 125.27 201.878 124.786C201.585 124.287 201.042 123.693 200.25 123.004C199.253 122.124 198.556 121.332 198.16 120.628C197.764 119.909 197.566 119.103 197.566 118.208C197.566 116.991 197.874 116.052 198.49 115.392C199.106 114.717 200.001 114.38 201.174 114.38C202.333 114.38 203.205 114.717 203.792 115.392C204.393 116.052 204.694 117.005 204.694 118.252V118.89H202.406V118.098C202.406 117.57 202.303 117.189 202.098 116.954C201.893 116.705 201.592 116.58 201.196 116.58C200.389 116.58 199.986 117.071 199.986 118.054C199.986 118.611 200.133 119.132 200.426 119.616C200.734 120.1 201.284 120.687 202.076 121.376C203.088 122.256 203.785 123.055 204.166 123.774C204.547 124.493 204.738 125.336 204.738 126.304C204.738 127.565 204.423 128.533 203.792 129.208C203.176 129.883 202.274 130.22 201.086 130.22ZM211.827 130.22C210.639 130.22 209.73 129.883 209.099 129.208C208.468 128.533 208.153 127.58 208.153 126.348V118.252C208.153 117.02 208.468 116.067 209.099 115.392C209.73 114.717 210.639 114.38 211.827 114.38C213.015 114.38 213.924 114.717 214.555 115.392C215.186 116.067 215.501 117.02 215.501 118.252V126.348C215.501 127.58 215.186 128.533 214.555 129.208C213.924 129.883 213.015 130.22 211.827 130.22ZM211.827 128.02C212.663 128.02 213.081 127.514 213.081 126.502V118.098C213.081 117.086 212.663 116.58 211.827 116.58C210.991 116.58 210.573 117.086 210.573 118.098V126.502C210.573 127.514 210.991 128.02 211.827 128.02ZM216.478 114.6H218.898V127.8H222.88V130H216.478V114.6ZM223.38 114.6H227.076C228.279 114.6 229.181 114.923 229.782 115.568C230.384 116.213 230.684 117.159 230.684 118.406V126.194C230.684 127.441 230.384 128.387 229.782 129.032C229.181 129.677 228.279 130 227.076 130H223.38V114.6ZM227.032 127.8C227.428 127.8 227.729 127.683 227.934 127.448C228.154 127.213 228.264 126.832 228.264 126.304V118.296C228.264 117.768 228.154 117.387 227.934 117.152C227.729 116.917 227.428 116.8 227.032 116.8H225.8V127.8H227.032Z" fill="white"/>
<path d="M57.79 103.7C54.01 103.7 51.14 102.65 49.18 100.55C47.2667 98.45 46.31 95.44 46.31 91.52V87.53H53.59V91.87C53.59 95.09 54.92 96.7 57.58 96.7C58.8867 96.7 59.8667 96.3033 60.52 95.51C61.22 94.67 61.57 93.2233 61.57 91.17V87.18C61.57 84.94 61.1733 83.3533 60.38 82.42C59.5867 81.44 58.3033 80.95 56.53 80.95H53.94V73.95H56.74C58.28 73.95 59.4233 73.5533 60.17 72.76C60.9633 71.9667 61.36 70.6367 61.36 68.77V65.2C61.36 63.52 61.01 62.2833 60.31 61.49C59.61 60.6967 58.6767 60.3 57.51 60.3C55.0367 60.3 53.8 61.8167 53.8 64.85V68.07H46.52V65.48C46.52 61.56 47.4767 58.55 49.39 56.45C51.35 54.35 54.15 53.3 57.79 53.3C61.4767 53.3 64.2767 54.35 66.19 56.45C68.1033 58.5033 69.06 61.49 69.06 65.41V67.16C69.06 69.82 68.6167 71.9667 67.73 73.6C66.8433 75.1867 65.4667 76.33 63.6 77.03V77.17C65.6067 77.9167 67.0533 79.13 67.94 80.81C68.8267 82.49 69.27 84.6367 69.27 87.25V91.59C69.27 95.51 68.29 98.52 66.33 100.62C64.4167 102.673 61.57 103.7 57.79 103.7ZM86.0273 103.7C82.2473 103.7 79.354 102.627 77.3473 100.48C75.3407 98.3333 74.3373 95.3 74.3373 91.38V65.62C74.3373 61.7 75.3407 58.6667 77.3473 56.52C79.354 54.3733 82.2473 53.3 86.0273 53.3C89.8073 53.3 92.7007 54.3733 94.7073 56.52C96.714 58.6667 97.7173 61.7 97.7173 65.62V91.38C97.7173 95.3 96.714 98.3333 94.7073 100.48C92.7007 102.627 89.8073 103.7 86.0273 103.7ZM86.0273 96.7C88.6873 96.7 90.0173 95.09 90.0173 91.87V65.13C90.0173 61.91 88.6873 60.3 86.0273 60.3C83.3673 60.3 82.0373 61.91 82.0373 65.13V91.87C82.0373 95.09 83.3673 96.7 86.0273 96.7ZM109.925 81.23C107.498 81.23 105.655 80.5533 104.395 79.2C103.135 77.8467 102.505 75.91 102.505 73.39V61.14C102.505 58.62 103.135 56.6833 104.395 55.33C105.655 53.9767 107.498 53.3 109.925 53.3C112.351 53.3 114.195 53.9767 115.455 55.33C116.715 56.6833 117.345 58.62 117.345 61.14V73.39C117.345 75.91 116.715 77.8467 115.455 79.2C114.195 80.5533 112.351 81.23 109.925 81.23ZM127.705 54H132.605L113.635 103H108.735L127.705 54ZM109.925 76.82C111.605 76.82 112.445 75.7933 112.445 73.74V60.79C112.445 58.7367 111.605 57.71 109.925 57.71C108.245 57.71 107.405 58.7367 107.405 60.79V73.74C107.405 75.7933 108.245 76.82 109.925 76.82ZM131.415 103.7C128.988 103.7 127.145 103.023 125.885 101.67C124.625 100.317 123.995 98.38 123.995 95.86V83.61C123.995 81.09 124.625 79.1533 125.885 77.8C127.145 76.4467 128.988 75.77 131.415 75.77C133.841 75.77 135.685 76.4467 136.945 77.8C138.205 79.1533 138.835 81.09 138.835 83.61V95.86C138.835 98.38 138.205 100.317 136.945 101.67C135.685 103.023 133.841 103.7 131.415 103.7ZM131.415 99.29C133.095 99.29 133.935 98.2633 133.935 96.21V83.26C133.935 81.2067 133.095 80.18 131.415 80.18C129.735 80.18 128.895 81.2067 128.895 83.26V96.21C128.895 98.2633 129.735 99.29 131.415 99.29ZM166.486 103.7C162.706 103.7 159.813 102.627 157.806 100.48C155.8 98.3333 154.796 95.3 154.796 91.38V65.62C154.796 61.7 155.8 58.6667 157.806 56.52C159.813 54.3733 162.706 53.3 166.486 53.3C170.266 53.3 173.16 54.3733 175.166 56.52C177.173 58.6667 178.176 61.7 178.176 65.62V91.38C178.176 95.3 177.173 98.3333 175.166 100.48C173.16 102.627 170.266 103.7 166.486 103.7ZM166.486 96.7C169.146 96.7 170.476 95.09 170.476 91.87V65.13C170.476 61.91 169.146 60.3 166.486 60.3C163.826 60.3 162.496 61.91 162.496 65.13V91.87C162.496 95.09 163.826 96.7 166.486 96.7ZM183.384 54H203.754V61H191.084V74.65H201.024V81.65H191.084V103H183.384V54ZM207.446 54H227.816V61H215.146V74.65H225.086V81.65H215.146V103H207.446V54Z" fill="white"/>
<path d="M366.414 152.065H270.914C259.869 152.065 299.914 145.608 299.914 127.229V105.374H342.414V127.229C343.081 135.508 348.814 138.157 366.414 152.065Z" fill="#443626"/>
<g filter="url(#filter0_f_12_56)">
<path d="M342 111.883V107H300V129.948C300 129.948 322 131.901 342 111.883Z" fill="#2F2519"/>
</g>
<path d="M289.015 75.8261C291.774 82.8248 294.944 88.106 291.414 89.4793C287.292 89.4793 283.169 86.6112 277.894 81.502C276.91 80.5487 276.133 79.3922 275.718 78.089C273.766 71.9463 274.431 66.8839 277.628 65.6403C281.158 64.267 283.914 71.5616 289.015 75.8261Z" fill="#443626"/>
<path d="M363.414 77.5583C366.235 70.5837 365.018 66.1071 361.5 64.7029C357.982 63.2986 352.843 67.8143 350.022 74.7889C347.201 81.7635 343.396 87.5784 346.914 88.9826C350.432 90.3868 360.593 84.5328 363.414 77.5583Z" fill="#443626"/>
<path d="M280.414 39.3116C278.814 54.809 285.414 71.2666 288.914 77.5583H350.914C354.414 70.4388 361.914 52.8221 359.914 39.3116C357.414 22.4234 342.914 4.04515 319.914 5.03857C296.914 6.03199 282.414 19.9399 280.414 39.3116Z" fill="#FDFDFD"/>
<path d="M352.414 67.6241C352.414 96.4107 339.99 115.729 323.088 118.764C321.651 119.022 320.176 119.053 318.727 118.864C300.482 116.494 288.838 96.427 286.914 67.6241C285.644 48.604 293.619 28.9135 302.914 23.4168C308.227 20.2751 315.414 28.3839 319.914 28.3839C324.414 28.3839 331.804 19.2516 336.914 22.4234C345.669 27.8569 352.414 48.0616 352.414 67.6241Z" fill="#443626"/>
<path d="M319.559 85.9338L319.616 85.9959V88.9762C298.838 103.989 290.102 97.2893 289.196 94.4068C289.102 94.1089 289.03 93.8 288.969 93.4937C288.74 92.3476 289.223 90.3605 290.616 88.9762C292.216 87.3867 293.616 88.3139 294.116 88.9762C292.58 90.1973 293.306 90.9103 294.254 91.2502C294.787 91.4412 295.361 91.2541 295.799 90.8962C299.916 87.5347 307.484 81.9558 310.942 81.5343C311.384 81.4805 311.834 81.4317 312.275 81.3771C315.04 81.0356 317.854 84.0849 319.559 85.9338Z" fill="#FDFDFD"/>
<path d="M329.616 81.0847C325.616 80.588 321.25 83.948 319.116 85.9959V89.0321C344.722 105.415 350.116 96.4268 351.116 93.9433C351.616 92.9498 351.979 91.1112 350.116 89.4729C348.254 87.8346 346.198 87.3001 345.616 87.9827C347.478 89.2929 346.362 90.4136 345.073 91.064C344.493 91.3567 343.805 91.2327 343.292 90.8331C338.616 87.1859 333.184 81.5277 329.616 81.0847Z" fill="#FDFDFD"/>
<g filter="url(#filter1_d_12_56)">
<path d="M309.914 64.1471C309.248 66.1339 306.414 69.9089 300.414 69.1142M329.414 64.1471C329.914 65.8028 332.414 69.1142 338.414 69.1142" stroke="#332719" stroke-width="1.5" stroke-linecap="round"/>
</g>
<g filter="url(#filter2_d_12_56)">
<path d="M302.414 45.2721H333.414M311.414 41.2984H328.914M330.914 37.8214H306.914" stroke="#332719" stroke-width="1.5" stroke-linecap="round" stroke-linejoin="round"/>
</g>
<defs>
<filter id="filter0_f_12_56" x="299" y="106" width="44" height="25" filterUnits="userSpaceOnUse" color-interpolation-filters="sRGB">
<feFlood flood-opacity="0" result="BackgroundImageFix"/>
<feBlend mode="normal" in="SourceGraphic" in2="BackgroundImageFix" result="shape"/>
<feGaussianBlur stdDeviation="0.5" result="effect1_foregroundBlur_12_56"/>
</filter>
<filter id="filter1_d_12_56" x="295.664" y="60.3969" width="47.5001" height="14.576" filterUnits="userSpaceOnUse" color-interpolation-filters="sRGB">
<feFlood flood-opacity="0" result="BackgroundImageFix"/>
<feColorMatrix in="SourceAlpha" type="matrix" values="0 0 0 0 0 0 0 0 0 0 0 0 0 0 0 0 0 0 127 0" result="hardAlpha"/>
<feOffset dy="1"/>
<feGaussianBlur stdDeviation="2"/>
<feComposite in2="hardAlpha" operator="out"/>
<feColorMatrix type="matrix" values="0 0 0 0 0 0 0 0 0 0 0 0 0 0 0 0 0 0 0.25 0"/>
<feBlend mode="normal" in2="BackgroundImageFix" result="effect1_dropShadow_12_56"/>
<feBlend mode="normal" in="SourceGraphic" in2="effect1_dropShadow_12_56" result="shape"/>
</filter>
<filter id="filter2_d_12_56" x="297.664" y="34.0714" width="40.5" height="16.9507" filterUnits="userSpaceOnUse" color-interpolation-filters="sRGB">
<feFlood flood-opacity="0" result="BackgroundImageFix"/>
<feColorMatrix in="SourceAlpha" type="matrix" values="0 0 0 0 0 0 0 0 0 0 0 0 0 0 0 0 0 0 127 0" result="hardAlpha"/>
<feOffset dy="1"/>
<feGaussianBlur stdDeviation="2"/>
<feComposite in2="hardAlpha" operator="out"/>
<feColorMatrix type="matrix" values="0 0 0 0 0 0 0 0 0 0 0 0 0 0 0 0 0 0 0.25 0"/>
<feBlend mode="normal" in2="BackgroundImageFix" result="effect1_dropShadow_12_56"/>
<feBlend mode="normal" in="SourceGraphic" in2="effect1_dropShadow_12_56" result="shape"/>
</filter>
</defs>
</svg>
